<?xml version="1.0" encoding="UTF-8"?>
<svg xmlns="http://www.w3.org/2000/svg" xmlns:xlink="http://www.w3.org/1999/xlink" width="300px" height="111px" viewBox="0 0 224 83" version="1.1">
<defs>
<clipPath id="clip1">
  <path d="M 146.097656 4.445312 L 193.878906 4.445312 L 193.878906 50.394531 L 146.097656 50.394531 Z M 146.097656 4.445312 "/>
</clipPath>
<clipPath id="clip2">
  <path d="M 190.226562 12.113281 C 183.292969 2.871094 168.617188 2.246094 157.441406 10.714844 C 146.253906 19.179688 142.808594 33.535156 149.734375 42.769531 C 156.664062 52.007812 171.34375 52.632812 182.527344 44.164062 C 193.707031 35.699219 197.152344 21.347656 190.226562 12.113281 Z M 190.226562 12.113281 "/>
</clipPath>
<clipPath id="clip3">
  <path d="M 121.226562 22.859375 L 179 -20.890625 L 218.976562 32.417969 L 161.203125 76.164062 Z M 121.226562 22.859375 "/>
</clipPath>
<clipPath id="clip4">
  <path d="M 190.226562 12.113281 C 183.292969 2.871094 168.617188 2.246094 157.441406 10.714844 C 146.253906 19.179688 142.808594 33.535156 149.734375 42.769531 C 156.664062 52.007812 171.34375 52.632812 182.527344 44.164062 C 193.707031 35.699219 197.152344 21.347656 190.226562 12.113281 Z M 190.226562 12.113281 "/>
</clipPath>
<clipPath id="clip5">
  <path d="M 137.308594 26.417969 L 177.765625 -4.214844 L 202.875 29.265625 L 162.425781 59.898438 Z M 137.308594 26.417969 "/>
</clipPath>
<clipPath id="clip6">
  <path d="M 146.097656 4.445312 L 193.878906 4.445312 L 193.878906 50.394531 L 146.097656 50.394531 Z M 146.097656 4.445312 "/>
</clipPath>
<clipPath id="clip7">
  <path d="M 190.226562 12.113281 C 183.292969 2.871094 168.617188 2.246094 157.441406 10.714844 C 146.253906 19.179688 142.808594 33.535156 149.734375 42.769531 C 156.664062 52.007812 171.34375 52.632812 182.527344 44.164062 C 193.707031 35.699219 197.152344 21.347656 190.226562 12.113281 Z M 190.226562 12.113281 "/>
</clipPath>
<clipPath id="clip8">
  <path d="M 121.226562 22.859375 L 179 -20.890625 L 218.976562 32.417969 L 161.203125 76.164062 Z M 121.226562 22.859375 "/>
</clipPath>
<clipPath id="clip9">
  <path d="M 190.226562 12.113281 C 183.292969 2.871094 168.617188 2.246094 157.441406 10.714844 C 146.253906 19.179688 142.808594 33.535156 149.734375 42.769531 C 156.664062 52.007812 171.34375 52.632812 182.527344 44.164062 C 193.707031 35.699219 197.152344 21.347656 190.226562 12.113281 Z M 190.226562 12.113281 "/>
</clipPath>
<clipPath id="clip10">
  <path d="M 143.074219 46.523438 L 157.042969 -2.402344 L 197.144531 9.152344 L 183.183594 58.082031 Z M 143.074219 46.523438 "/>
</clipPath>
<clipPath id="clip11">
  <path d="M 146.097656 4.445312 L 193.878906 4.445312 L 193.878906 50.394531 L 146.097656 50.394531 Z M 146.097656 4.445312 "/>
</clipPath>
<clipPath id="clip12">
  <path d="M 190.226562 12.113281 C 183.292969 2.871094 168.617188 2.246094 157.441406 10.714844 C 146.253906 19.179688 142.808594 33.535156 149.734375 42.769531 C 156.664062 52.007812 171.34375 52.632812 182.527344 44.164062 C 193.707031 35.699219 197.152344 21.347656 190.226562 12.113281 Z M 190.226562 12.113281 "/>
</clipPath>
<clipPath id="clip13">
  <path d="M 121.226562 22.859375 L 179 -20.890625 L 218.976562 32.417969 L 161.203125 76.164062 Z M 121.226562 22.859375 "/>
</clipPath>
<clipPath id="clip14">
  <path d="M 190.226562 12.113281 C 183.292969 2.871094 168.617188 2.246094 157.441406 10.714844 C 146.253906 19.179688 142.808594 33.535156 149.734375 42.769531 C 156.664062 52.007812 171.34375 52.632812 182.527344 44.164062 C 193.707031 35.699219 197.152344 21.347656 190.226562 12.113281 Z M 190.226562 12.113281 "/>
</clipPath>
<clipPath id="clip15">
  <path d="M 137.308594 26.417969 L 177.765625 -4.214844 L 202.875 29.265625 L 162.425781 59.898438 Z M 137.308594 26.417969 "/>
</clipPath>
<clipPath id="clip16">
  <path d="M 146.097656 4.445312 L 193.878906 4.445312 L 193.878906 50.394531 L 146.097656 50.394531 Z M 146.097656 4.445312 "/>
</clipPath>
<clipPath id="clip17">
  <path d="M 190.226562 12.113281 C 183.292969 2.871094 168.617188 2.246094 157.441406 10.714844 C 146.253906 19.179688 142.808594 33.535156 149.734375 42.769531 C 156.664062 52.007812 171.34375 52.632812 182.527344 44.164062 C 193.707031 35.699219 197.152344 21.347656 190.226562 12.113281 Z M 190.226562 12.113281 "/>
</clipPath>
<clipPath id="clip18">
  <path d="M 121.226562 22.859375 L 179 -20.890625 L 218.976562 32.417969 L 161.203125 76.164062 Z M 121.226562 22.859375 "/>
</clipPath>
<clipPath id="clip19">
  <path d="M 190.226562 12.113281 C 183.292969 2.871094 168.617188 2.246094 157.441406 10.714844 C 146.253906 19.179688 142.808594 33.535156 149.734375 42.769531 C 156.664062 52.007812 171.34375 52.632812 182.527344 44.164062 C 193.707031 35.699219 197.152344 21.347656 190.226562 12.113281 Z M 190.226562 12.113281 "/>
</clipPath>
<clipPath id="clip20">
  <path d="M 143.074219 46.523438 L 157.042969 -2.402344 L 197.144531 9.152344 L 183.183594 58.082031 Z M 143.074219 46.523438 "/>
</clipPath>
<clipPath id="clip21">
  <path d="M 146.097656 4.445312 L 193.878906 4.445312 L 193.878906 50.394531 L 146.097656 50.394531 Z M 146.097656 4.445312 "/>
</clipPath>
<clipPath id="clip22">
  <path d="M 190.226562 12.113281 C 183.292969 2.871094 168.617188 2.246094 157.441406 10.714844 C 146.253906 19.179688 142.808594 33.535156 149.734375 42.769531 C 156.664062 52.007812 171.34375 52.632812 182.527344 44.164062 C 193.707031 35.699219 197.152344 21.347656 190.226562 12.113281 Z M 190.226562 12.113281 "/>
</clipPath>
<clipPath id="clip23">
  <path d="M 121.226562 22.859375 L 179 -20.890625 L 218.976562 32.417969 L 161.203125 76.164062 Z M 121.226562 22.859375 "/>
</clipPath>
<clipPath id="clip24">
  <path d="M 190.226562 12.113281 C 183.292969 2.871094 168.617188 2.246094 157.441406 10.714844 C 146.253906 19.179688 142.808594 33.535156 149.734375 42.769531 C 156.664062 52.007812 171.34375 52.632812 182.527344 44.164062 C 193.707031 35.699219 197.152344 21.347656 190.226562 12.113281 Z M 190.226562 12.113281 "/>
</clipPath>
<clipPath id="clip25">
  <path d="M 146.097656 4.445312 L 193.878906 4.445312 L 193.878906 50.394531 L 146.097656 50.394531 Z M 146.097656 4.445312 "/>
</clipPath>
<clipPath id="clip26">
  <path d="M 190.226562 12.113281 C 183.292969 2.871094 168.617188 2.246094 157.441406 10.714844 C 146.253906 19.179688 142.808594 33.535156 149.734375 42.769531 C 156.664062 52.007812 171.34375 52.632812 182.527344 44.164062 C 193.707031 35.699219 197.152344 21.347656 190.226562 12.113281 Z M 190.226562 12.113281 "/>
</clipPath>
<clipPath id="clip27">
  <path d="M 121.226562 22.859375 L 179 -20.890625 L 218.976562 32.417969 L 161.203125 76.164062 Z M 121.226562 22.859375 "/>
</clipPath>
<clipPath id="clip28">
  <path d="M 158 14.011719 L 183.683594 14.011719 L 183.683594 40.421875 L 158 40.421875 Z M 158 14.011719 "/>
</clipPath>
<clipPath id="clip29">
  <path d="M 190.226562 12.113281 C 183.292969 2.871094 168.617188 2.246094 157.441406 10.714844 C 146.253906 19.179688 142.808594 33.535156 149.734375 42.769531 C 156.664062 52.007812 171.34375 52.632812 182.527344 44.164062 C 193.707031 35.699219 197.152344 21.347656 190.226562 12.113281 Z M 190.226562 12.113281 "/>
</clipPath>
<clipPath id="clip30">
  <path d="M 121.226562 22.859375 L 179 -20.890625 L 218.976562 32.417969 L 161.203125 76.164062 Z M 121.226562 22.859375 "/>
</clipPath>
</defs>
<g id="surface1">
<path style=" stroke:none;fill-rule:nonzero;fill:rgb(0%,0%,0%);fill-opacity:1;" d="M 115.625 27.488281 L 126.203125 26.804688 C 126.449219 28.542969 126.886719 29.832031 127.609375 30.765625 C 128.777344 32.21875 130.390625 32.949219 132.523438 32.949219 C 134.089844 32.949219 135.332031 32.585938 136.183594 31.820312 C 136.988281 31.210938 137.464844 30.238281 137.464844 29.230469 C 137.464844 28.257812 137.027344 27.328125 136.265625 26.726562 C 135.453125 25.996094 133.5625 25.265625 130.585938 24.625 C 125.71875 23.527344 122.222656 22.074219 120.167969 20.21875 C 118.117188 18.476562 116.949219 15.925781 117.03125 13.21875 C 117.03125 11.359375 117.597656 9.5 118.636719 7.964844 C 119.84375 6.222656 121.492188 4.851562 123.464844 4.082031 C 125.597656 3.15625 128.582031 2.667969 132.320312 2.667969 C 136.90625 2.667969 140.410156 3.519531 142.820312 5.257812 C 145.238281 6.953125 146.683594 9.703125 147.125 13.460938 L 136.664062 14.070312 C 136.378906 12.453125 135.820312 11.277344 134.894531 10.515625 C 133.96875 9.742188 132.761719 9.378906 131.195312 9.378906 C 129.90625 9.378906 128.9375 9.664062 128.296875 10.191406 C 127.691406 10.675781 127.292969 11.398438 127.332031 12.210938 C 127.332031 12.8125 127.648438 13.378906 128.136719 13.746094 C 128.65625 14.230469 129.90625 14.675781 131.875 15.082031 C 136.742188 16.128906 140.207031 17.183594 142.335938 18.273438 C 144.46875 19.367188 146 20.699219 146.925781 22.277344 C 147.890625 23.894531 148.375 25.753906 148.335938 27.652344 C 148.335938 29.914062 147.6875 32.183594 146.402344 34.082031 C 145.074219 36.0625 143.222656 37.597656 141.050781 38.53125 C 138.753906 39.539062 135.859375 40.0625 132.402344 40.0625 C 126.285156 40.0625 122.058594 38.890625 119.683594 36.503906 C 117.3125 34.117188 115.902344 31.128906 115.625 27.488281 Z M 3.324219 39.457031 L 3.324219 3.316406 L 21.871094 3.316406 C 25.292969 3.316406 27.945312 3.59375 29.761719 4.203125 C 31.53125 4.769531 33.097656 5.945312 34.144531 7.519531 C 35.3125 9.257812 35.871094 11.277344 35.835938 13.378906 C 35.953125 16.941406 34.144531 20.332031 31.046875 22.117188 C 29.835938 22.804688 28.511719 23.285156 27.144531 23.527344 C 28.148438 23.8125 29.15625 24.300781 30.039062 24.867188 C 30.722656 25.429688 31.289062 26.078125 31.808594 26.765625 C 32.414062 27.449219 32.9375 28.21875 33.378906 29.027344 L 38.769531 39.496094 L 26.136719 39.496094 L 20.183594 28.378906 C 19.417969 26.960938 18.777344 26.035156 18.171875 25.589844 C 17.367188 25.027344 16.402344 24.738281 15.4375 24.738281 L 14.46875 24.738281 L 14.46875 39.414062 L 3.324219 39.414062 Z M 14.46875 17.949219 L 19.175781 17.949219 C 20.183594 17.871094 21.148438 17.710938 22.113281 17.46875 C 22.835938 17.34375 23.484375 16.941406 23.921875 16.332031 C 25.007812 14.878906 24.851562 12.8125 23.523438 11.5625 C 22.796875 10.953125 21.390625 10.628906 19.378906 10.628906 L 14.46875 10.628906 Z M 0.792969 70.425781 L 11.371094 69.734375 C 11.613281 71.480469 12.054688 72.769531 12.777344 73.703125 C 13.910156 75.15625 15.558594 75.925781 17.691406 75.925781 C 19.257812 75.925781 20.507812 75.558594 21.351562 74.796875 C 22.152344 74.148438 22.640625 73.214844 22.640625 72.207031 C 22.640625 71.234375 22.195312 70.304688 21.429688 69.703125 C 20.628906 68.972656 18.738281 68.242188 15.71875 67.601562 C 10.851562 66.503906 7.347656 65.050781 5.296875 63.1875 C 3.242188 61.449219 2.074219 58.902344 2.15625 56.195312 C 2.15625 54.335938 2.722656 52.476562 3.761719 50.941406 C 4.972656 49.199219 6.625 47.828125 8.597656 47.058594 C 10.730469 46.132812 13.707031 45.644531 17.449219 45.644531 C 22.03125 45.644531 25.535156 46.496094 27.945312 48.234375 C 30.363281 49.96875 31.769531 52.679688 32.214844 56.4375 L 21.75 57.046875 C 21.472656 55.425781 20.910156 54.253906 19.980469 53.492188 C 19.09375 52.71875 17.851562 52.355469 16.28125 52.394531 C 14.992188 52.394531 14.023438 52.679688 13.382812 53.246094 C 12.734375 53.726562 12.378906 54.457031 12.417969 55.269531 C 12.417969 55.875 12.734375 56.4375 13.222656 56.800781 C 13.746094 57.289062 14.992188 57.734375 16.96875 58.132812 C 21.835938 59.1875 25.292969 60.242188 27.425781 61.328125 C 29.558594 62.421875 31.085938 63.753906 32.011719 65.332031 C 32.976562 66.953125 33.460938 68.808594 33.460938 70.667969 C 33.460938 72.933594 32.78125 75.15625 31.53125 77.054688 C 30.199219 79.039062 28.351562 80.574219 26.175781 81.5 C 23.882812 82.515625 20.984375 83.039062 17.527344 83.039062 C 11.410156 83.039062 7.1875 81.867188 4.816406 79.480469 C 2.441406 77.054688 1.109375 74.066406 0.792969 70.425781 Z M 0.792969 70.425781 "/>
<path style=" stroke:none;fill-rule:nonzero;fill:rgb(0%,0%,0%);fill-opacity:1;" d="M 54.304688 67.601562 L 64.039062 70.546875 C 63.519531 73.011719 62.429688 75.359375 60.941406 77.417969 C 59.574219 79.242188 57.765625 80.65625 55.707031 81.585938 C 53.621094 82.515625 50.960938 83 47.742188 83 C 43.839844 83 40.617188 82.433594 38.167969 81.304688 C 35.675781 80.167969 33.542969 78.148438 31.734375 75.277344 C 29.917969 72.410156 29.035156 68.730469 29.035156 64.242188 C 29.035156 58.261719 30.605469 53.652344 33.78125 50.457031 C 36.960938 47.261719 41.429688 45.644531 47.222656 45.644531 C 51.765625 45.644531 55.308594 46.570312 57.921875 48.394531 C 60.5 50.253906 62.429688 53.085938 63.722656 56.882812 L 53.898438 59.066406 C 53.660156 58.214844 53.296875 57.371094 52.8125 56.640625 C 52.210938 55.789062 51.445312 55.144531 50.523438 54.660156 C 49.589844 54.171875 48.550781 53.972656 47.503906 53.972656 C 44.964844 53.972656 43.035156 54.984375 41.707031 57.046875 C 40.707031 58.539062 40.179688 60.925781 40.179688 64.160156 C 40.179688 68.160156 40.78125 70.910156 41.988281 72.410156 C 43.199219 73.90625 44.886719 74.632812 47.101562 74.632812 C 49.234375 74.632812 50.839844 74.027344 51.925781 72.851562 C 53.015625 71.601562 53.824219 69.863281 54.304688 67.601562 Z M 77.035156 46.246094 L 88.140625 46.246094 L 88.140625 58.902344 L 100.292969 58.902344 L 100.292969 46.246094 L 111.480469 46.246094 L 111.480469 82.390625 L 100.292969 82.390625 L 100.292969 67.757812 L 88.140625 67.757812 L 88.140625 82.390625 L 77.035156 82.390625 Z M 77.035156 46.246094 "/>
<path style=" stroke:none;fill-rule:nonzero;fill:rgb(0%,0%,0%);fill-opacity:1;" d="M 109.949219 64.324219 C 109.949219 58.421875 111.59375 53.808594 114.855469 50.539062 C 118.117188 47.261719 122.699219 45.605469 128.535156 45.605469 C 134.53125 45.605469 139.121094 47.21875 142.378906 50.457031 C 145.636719 53.6875 147.25 58.214844 147.25 64.039062 C 147.25 68.28125 146.519531 71.722656 145.113281 74.429688 C 143.746094 77.09375 141.613281 79.277344 139 80.734375 C 136.304688 82.230469 132.960938 83 128.980469 83 C 124.914062 83 121.578125 82.351562 118.921875 81.058594 C 116.1875 79.683594 113.929688 77.539062 112.445312 74.910156 C 110.792969 72.085938 109.949219 68.566406 109.949219 64.324219 Z M 121.054688 64.363281 C 121.054688 68 121.734375 70.628906 123.066406 72.25 C 124.394531 73.824219 126.246094 74.632812 128.582031 74.632812 C 130.949219 74.632812 132.800781 73.863281 134.128906 72.285156 C 135.453125 70.707031 136.101562 67.917969 136.101562 63.875 C 136.101562 60.484375 135.417969 57.972656 134.050781 56.4375 C 132.679688 54.863281 130.828125 54.09375 128.492188 54.09375 C 126.449219 54.011719 124.476562 54.902344 123.105469 56.476562 C 121.734375 58.058594 121.054688 60.679688 121.054688 64.363281 Z M 158.632812 64.324219 C 158.632812 58.421875 160.277344 53.808594 163.539062 50.539062 C 166.800781 47.261719 171.386719 45.605469 177.21875 45.605469 C 183.21875 45.605469 187.84375 47.21875 191.0625 50.457031 C 194.277344 53.6875 195.933594 58.214844 195.933594 64.039062 C 195.933594 68.28125 195.203125 71.722656 193.800781 74.429688 C 192.429688 77.09375 190.296875 79.277344 187.683594 80.734375 C 184.988281 82.230469 181.648438 83 177.664062 83 C 173.597656 83 170.261719 82.351562 167.605469 81.058594 C 164.871094 79.683594 162.613281 77.539062 161.128906 74.910156 C 159.480469 72.085938 158.632812 68.566406 158.632812 64.324219 Z M 169.738281 64.363281 C 169.738281 68 170.417969 70.628906 171.75 72.25 C 173.078125 73.824219 174.929688 74.632812 177.265625 74.632812 C 179.636719 74.632812 181.484375 73.863281 182.816406 72.285156 C 184.144531 70.707031 184.785156 67.917969 184.785156 63.875 C 184.785156 60.484375 184.105469 57.972656 182.734375 56.4375 C 181.363281 54.863281 179.511719 54.09375 177.179688 54.09375 C 175.132812 54.011719 173.121094 54.902344 171.789062 56.476562 C 170.417969 58.058594 169.738281 60.679688 169.738281 64.363281 Z M 169.738281 64.363281 "/>
<path style=" stroke:none;fill-rule:nonzero;fill:rgb(0%,0%,0%);fill-opacity:1;" d="M 194.765625 46.246094 L 205.871094 46.246094 L 205.871094 73.5 L 223.207031 73.5 L 223.207031 82.390625 L 194.722656 82.390625 L 194.722656 46.246094 Z M 194.765625 46.246094 "/>
<path style=" stroke:none;fill-rule:nonzero;fill:rgb(100%,100%,100%);fill-opacity:1;" d="M 190.226562 12.113281 C 183.292969 2.871094 168.617188 2.246094 157.441406 10.714844 C 146.253906 19.179688 142.808594 33.535156 149.734375 42.769531 C 156.664062 52.007812 171.34375 52.632812 182.527344 44.164062 C 193.707031 35.699219 197.152344 21.347656 190.226562 12.113281 Z M 190.226562 12.113281 "/>
<g clip-path="url(#clip1)" clip-rule="nonzero">
<g clip-path="url(#clip2)" clip-rule="nonzero">
<path style=" stroke:none;fill-rule:nonzero;fill:rgb(100%,100%,100%);fill-opacity:1;" d="M 121.226562 22.859375 L 179 -20.890625 L 218.976562 32.417969 L 161.203125 76.164062 Z M 121.226562 22.859375 "/>
<g clip-path="url(#clip3)" clip-rule="nonzero">
<path style=" stroke:none;fill-rule:nonzero;fill:rgb(100%,100%,100%);fill-opacity:1;" d="M 190.226562 12.113281 C 183.292969 2.871094 168.617188 2.246094 157.441406 10.714844 C 146.253906 19.179688 142.808594 33.535156 149.734375 42.769531 C 156.664062 52.007812 171.34375 52.632812 182.527344 44.164062 C 193.707031 35.699219 197.152344 21.347656 190.226562 12.113281 Z M 190.226562 12.113281 "/>
<g clip-path="url(#clip4)" clip-rule="nonzero">
<path style=" stroke:none;fill-rule:nonzero;fill:rgb(100%,100%,100%);fill-opacity:1;" d="M 137.308594 26.417969 L 177.765625 -4.214844 L 202.875 29.265625 L 162.425781 59.898438 Z M 137.308594 26.417969 "/>
<g clip-path="url(#clip5)" clip-rule="nonzero">
<path style="fill-rule:nonzero;fill:rgb(100%,100%,100%);fill-opacity:1;stroke-width:4;stroke-linecap:butt;stroke-linejoin:miter;stroke:rgb(0%,0%,0%);stroke-opacity:1;stroke-miterlimit:10;" d="M 483.501396 67.908335 C 483.497094 39.280251 455.297698 16.093923 420.508271 16.106563 C 385.701399 16.093958 357.493 39.298254 357.493424 67.899219 C 357.495788 96.513744 385.702938 119.705914 420.500118 119.699117 C 455.299237 119.705879 483.501821 96.5093 483.501396 67.908335 Z M 483.501396 67.908335 " transform="matrix(0.321329,-0.243312,0.242147,0.322873,18.419862,107.828983)"/>
</g>
</g>
</g>
</g>
</g>
<g clip-path="url(#clip6)" clip-rule="nonzero">
<g clip-path="url(#clip7)" clip-rule="nonzero">
<g clip-path="url(#clip8)" clip-rule="nonzero">
<g clip-path="url(#clip9)" clip-rule="nonzero">
<g clip-path="url(#clip10)" clip-rule="nonzero">
<path style="fill:none;stroke-width:4;stroke-linecap:butt;stroke-linejoin:miter;stroke:rgb(0%,0%,0%);stroke-opacity:1;stroke-miterlimit:10;" d="M 357.793174 16.99465 L 483.696476 16.995167 L 483.697983 120.69036 L 357.802434 120.695685 Z M 357.793174 16.99465 " transform="matrix(0.321333,-0.243306,0.242141,0.322877,18.222676,107.983866)"/>
</g>
</g>
</g>
</g>
</g>
<g clip-path="url(#clip11)" clip-rule="nonzero">
<g clip-path="url(#clip12)" clip-rule="nonzero">
<g clip-path="url(#clip13)" clip-rule="nonzero">
<g clip-path="url(#clip14)" clip-rule="nonzero">
<path style="fill:none;stroke-width:4;stroke-linecap:butt;stroke-linejoin:miter;stroke:rgb(0%,0%,0%);stroke-opacity:1;stroke-miterlimit:10;" d="M 483.501396 67.908335 C 483.497094 39.280251 455.297698 16.093923 420.508271 16.106563 C 385.701399 16.093958 357.493 39.298254 357.493424 67.899219 C 357.495788 96.513744 385.702938 119.705914 420.500118 119.699117 C 455.299237 119.705879 483.501821 96.5093 483.501396 67.908335 Z M 483.501396 67.908335 " transform="matrix(0.321329,-0.243312,0.242147,0.322873,18.419862,107.828983)"/>
<path style=" stroke:none;fill-rule:nonzero;fill:rgb(100%,100%,100%);fill-opacity:1;" d="M 137.308594 26.417969 L 177.765625 -4.214844 L 202.875 29.265625 L 162.425781 59.898438 Z M 137.308594 26.417969 "/>
<g clip-path="url(#clip15)" clip-rule="nonzero">
<path style="fill-rule:nonzero;fill:rgb(100%,100%,100%);fill-opacity:1;stroke-width:4;stroke-linecap:butt;stroke-linejoin:miter;stroke:rgb(0%,0%,0%);stroke-opacity:1;stroke-miterlimit:10;" d="M 483.501396 67.908335 C 483.497094 39.280251 455.297698 16.093923 420.508271 16.106563 C 385.701399 16.093958 357.493 39.298254 357.493424 67.899219 C 357.495788 96.513744 385.702938 119.705914 420.500118 119.699117 C 455.299237 119.705879 483.501821 96.5093 483.501396 67.908335 Z M 483.501396 67.908335 " transform="matrix(0.321329,-0.243312,0.242147,0.322873,18.419862,107.828983)"/>
</g>
</g>
</g>
</g>
</g>
<g clip-path="url(#clip16)" clip-rule="nonzero">
<g clip-path="url(#clip17)" clip-rule="nonzero">
<g clip-path="url(#clip18)" clip-rule="nonzero">
<g clip-path="url(#clip19)" clip-rule="nonzero">
<g clip-path="url(#clip20)" clip-rule="nonzero">
<path style="fill:none;stroke-width:4;stroke-linecap:butt;stroke-linejoin:miter;stroke:rgb(0%,0%,0%);stroke-opacity:1;stroke-miterlimit:10;" d="M 357.793174 16.99465 L 483.696476 16.995167 L 483.697983 120.69036 L 357.802434 120.695685 Z M 357.793174 16.99465 " transform="matrix(0.321333,-0.243306,0.242141,0.322877,18.222676,107.983866)"/>
</g>
</g>
</g>
</g>
</g>
<g clip-path="url(#clip21)" clip-rule="nonzero">
<g clip-path="url(#clip22)" clip-rule="nonzero">
<g clip-path="url(#clip23)" clip-rule="nonzero">
<g clip-path="url(#clip24)" clip-rule="nonzero">
<path style="fill:none;stroke-width:4;stroke-linecap:butt;stroke-linejoin:miter;stroke:rgb(0%,0%,0%);stroke-opacity:1;stroke-miterlimit:10;" d="M 330.910241 -14.201673 L 510.705365 -14.201258 L 510.703941 150.892593 L 330.903002 150.899894 Z M 330.910241 -14.201673 " transform="matrix(0.321329,-0.243312,0.242147,0.322873,18.334494,107.955084)"/>
</g>
</g>
</g>
</g>
<g clip-path="url(#clip25)" clip-rule="nonzero">
<g clip-path="url(#clip26)" clip-rule="nonzero">
<g clip-path="url(#clip27)" clip-rule="nonzero">
<path style="fill:none;stroke-width:4;stroke-linecap:butt;stroke-linejoin:miter;stroke:rgb(0%,0%,0%);stroke-opacity:1;stroke-miterlimit:10;" d="M 483.501396 67.908335 C 483.497094 39.280251 455.297698 16.093923 420.508271 16.106563 C 385.701399 16.093958 357.493 39.298254 357.493424 67.899219 C 357.495788 96.513744 385.702938 119.705914 420.500118 119.699117 C 455.299237 119.705879 483.501821 96.5093 483.501396 67.908335 Z M 483.501396 67.908335 " transform="matrix(0.321329,-0.243312,0.242147,0.322873,18.419862,107.828983)"/>
</g>
</g>
</g>
<g clip-path="url(#clip28)" clip-rule="nonzero">
<g clip-path="url(#clip29)" clip-rule="nonzero">
<g clip-path="url(#clip30)" clip-rule="nonzero">
<path style=" stroke:none;fill-rule:nonzero;fill:rgb(0%,0%,0%);fill-opacity:1;" d="M 158.671875 24.785156 L 162.695312 21.953125 L 167.644531 29.027344 C 168.488281 30.15625 169.136719 31.375 169.617188 32.707031 C 169.898438 33.71875 169.816406 34.808594 169.414062 35.78125 C 168.894531 36.988281 168.050781 38.003906 166.921875 38.734375 C 165.59375 39.660156 164.464844 40.1875 163.5 40.347656 C 162.574219 40.511719 161.609375 40.347656 160.722656 39.941406 C 159.757812 39.457031 158.914062 38.773438 158.273438 37.882812 L 161.730469 34.644531 C 162.011719 35.089844 162.378906 35.496094 162.777344 35.820312 C 163.058594 36.023438 163.378906 36.144531 163.742188 36.144531 C 164.027344 36.144531 164.308594 36.023438 164.503906 35.859375 C 164.910156 35.617188 165.191406 35.132812 165.152344 34.644531 C 165.03125 33.960938 164.75 33.273438 164.308594 32.746094 Z M 170.742188 29.273438 L 174.410156 26.359375 C 174.808594 26.847656 175.332031 27.210938 175.894531 27.414062 C 176.699219 27.652344 177.542969 27.488281 178.230469 26.960938 C 178.710938 26.644531 179.113281 26.199219 179.277344 25.628906 C 179.511719 24.902344 179.113281 24.097656 178.386719 23.851562 C 178.265625 23.8125 178.148438 23.773438 178.027344 23.773438 C 177.542969 23.730469 176.699219 23.933594 175.449219 24.460938 C 173.398438 25.304688 171.789062 25.628906 170.582031 25.507812 C 169.414062 25.386719 168.332031 24.785156 167.683594 23.773438 C 167.207031 23.082031 166.960938 22.277344 166.921875 21.46875 C 166.921875 20.535156 167.164062 19.609375 167.683594 18.839844 C 168.449219 17.746094 169.378906 16.820312 170.5 16.089844 C 172.195312 14.917969 173.679688 14.351562 174.96875 14.351562 C 176.257812 14.351562 177.460938 14.960938 178.589844 16.210938 L 174.96875 19.082031 C 174.246094 18.152344 172.875 17.949219 171.953125 18.675781 L 171.832031 18.800781 C 171.425781 19.042969 171.148438 19.40625 170.984375 19.851562 C 170.863281 20.171875 170.945312 20.535156 171.148438 20.820312 C 171.304688 21.023438 171.546875 21.183594 171.832031 21.183594 C 172.152344 21.226562 172.714844 21.0625 173.519531 20.699219 C 175.53125 19.851562 177.0625 19.367188 178.101562 19.203125 C 178.992188 19.042969 179.917969 19.125 180.761719 19.488281 C 181.523438 19.8125 182.171875 20.375 182.613281 21.0625 C 183.179688 21.875 183.496094 22.839844 183.539062 23.851562 C 183.578125 24.902344 183.292969 25.914062 182.734375 26.804688 C 182.011719 27.894531 181.085938 28.828125 180 29.550781 C 177.785156 31.089844 175.976562 31.734375 174.523438 31.496094 C 172.957031 31.253906 171.667969 30.441406 170.742188 29.273438 Z M 170.742188 29.273438 "/>
</g>
</g>
</g>
</g>
</svg>
